<?xml version="1.0" standalone="no"?>
<!DOCTYPE svg PUBLIC "-//W3C//DTD SVG 20010904//EN"
 "http://www.w3.org/TR/2001/REC-SVG-20010904/DTD/svg10.dtd">
<svg version="1.0" xmlns="http://www.w3.org/2000/svg"
 width="83.000000pt" height="30.000000pt" viewBox="0 0 83.000000 30.000000"
 preserveAspectRatio="xMidYMid meet">

<g transform="translate(0.000000,30.000000) scale(0.100000,-0.100000)"
fill="#000000" stroke="none">
<path d="M120 205 c7 -9 11 -37 8 -75 l-3 -60 41 0 c53 0 84 28 84 75 0 52
-28 75 -91 75 -44 0 -50 -2 -39 -15z m86 -39 c8 -35 1 -60 -19 -64 -14 -3 -17
4 -17 42 0 34 4 46 15 46 8 0 17 -11 21 -24z"/>
<path d="M260 205 c7 -9 11 -37 8 -75 -3 -56 -1 -61 17 -58 18 3 20 12 23 76
l3 72 -32 0 c-26 0 -30 -2 -19 -15z"/>
<path d="M356 207 c2 -7 -5 -39 -16 -71 -24 -70 -23 -66 -6 -66 8 0 16 7 20
15 7 19 55 19 62 0 4 -8 15 -15 26 -15 15 0 18 4 13 18 -4 9 -16 43 -27 75
-18 52 -23 57 -49 57 -19 0 -27 -4 -23 -13z m38 -59 c5 -23 3 -28 -13 -28 -18
0 -19 3 -9 31 12 34 13 34 22 -3z"/>
<path d="M483 214 c3 -4 0 -16 -8 -28 -20 -28 -19 -59 4 -87 18 -22 27 -24
110 -24 72 0 94 3 107 17 14 14 15 22 6 42 -6 13 -21 26 -33 28 -36 5 -36 28
0 28 21 0 31 5 31 15 0 11 -12 15 -50 15 l-50 0 0 -35 c0 -30 4 -37 36 -50 19
-8 33 -19 29 -25 -9 -14 -55 -12 -56 3 0 6 -5 1 -11 -13 l-11 -25 -7 25 c-5
14 -8 19 -9 12 -1 -8 -11 -12 -28 -10 -20 2 -30 11 -37 31 -12 33 8 58 48 60
14 1 26 8 26 15 0 8 -17 12 -52 12 -28 0 -48 -3 -45 -6z"/>
</g>
</svg>
